<?xml version="1.0" encoding="UTF-8"?><svg id="Layer_2" xmlns="http://www.w3.org/2000/svg" viewBox="0 0 373.64 373.64"><defs><style>.cls-1{fill:none;stroke:#d9d9d9;stroke-dasharray:0 0 0 0 0 0 20.68 20.68;stroke-miterlimit:10;stroke-width:5px;}.cls-2{fill:#d9d9d9;}</style></defs><circle class="cls-1" cx="186.82" cy="186.82" r="184.32"/><g id="Layer_1"><path class="cls-2" d="m176.55,115.6c-9.99,6.95-19.73,13.81-29.57,20.52-3.82,2.61-8.12,4.05-12.83,4.11-1.28.02-2.79.08-3.76.76-1.07.75-2.4,2.34-2.24,3.34.19,1.2,1.75,2.96,2.88,3.1,7.86.91,14.72-2.1,21.05-6.36,7.37-4.96,14.45-10.38,21.96-15.12,5.98-3.78,12.88-5.66,19.87-6.3,2.78-.25,5.99,1.12,8.58,2.53,10.56,5.76,20.94,11.87,31.45,17.73,1.56.87,3.51,1.58,5.22,1.47,1.35-.09,3.32-1.32,3.68-2.47.31-.99-.94-3.11-2.06-3.79-3.54-2.12-7.43-3.63-11.03-5.67-5.41-3.07-10.69-6.36-16-9.6-.62-.38-1.05-1.08-1.49-2.67,4.85-.15,9.72-.64,14.52-.25,1.7.14,3.17,2.52,4.83,3.76,5.52,4.13,11.45,7.78,16.53,12.39,6.61,6,13.07,12.32,18.65,19.26,8.28,10.31,14.16,22.11,17.81,34.87,2.63,9.18,4.51,18.47,5.5,28.05,1.32,12.72-.55,24.89-4.63,36.69-5.11,14.77-14.34,26.41-28.11,34.42-10.77,6.27-22.6,9.08-34.5,11.74-17.15,3.84-34.58,4.25-52.01,3.23-7.23-.42-14.47-1.92-21.52-3.68-7.25-1.81-14.56-3.92-21.34-7.01-14.58-6.63-25.6-17.35-32.38-31.96-4.38-9.44-6.96-19.45-6.83-29.99.1-7.68-.27-15.41.45-23.04,1.07-11.44,3.44-22.6,7.81-33.41,5.34-13.24,12.99-24.85,22.94-34.84,5.6-5.62,12.26-10.19,18.44-15.24.85-.69,2.12-1.18,2.51-2.07,1.64-3.72,4.99-4.41,8.31-4.58,8.41-.45,16.85-.57,25.27-.74.68-.01,1.38.52,2.06.79Zm44.62-5.65c1.87-.69,4.19-.9,5.55-2.15,9.74-8.99,19.31-18.16,28.86-27.36,2.97-2.86,2.87-5.04.12-8.25-5.61-6.54-15.07-8.21-23.29-4.03-4.03,2.05-7.8,4.93-12.05,6.17-3.45,1.01-8.01,1.3-11.08-.17-5.03-2.43-9.38-6.37-13.75-10-5.41-4.49-12.58-6.03-18.58-2.62-5.81,3.3-11.16,7.4-16.72,11.15-5.09,3.43-9.82,3.3-15.11.11-6.44-3.87-12.64-8.14-21.01-7.07-5.01.65-9,2.46-12.25,6.02-2.74,3.01-2.88,6.42-.15,9.5,3.12,3.53,6.45,6.97,10.12,9.91,6.47,5.19,13.49,9.71,19.81,15.07,2.52,2.14,4.88,2.68,7.77,2.49,2.29-.15,4.58-.4,6.85-.69,12.47-1.57,24.76-.78,36.92,2.51,2.4.65,5.03.92,7.5.74,6.77-.48,13.52-1.29,20.28-1.97.07.21.14.42.21.62Zm-55.69,83.77c.04-.15.06-.3.12-.44,1.79-3.71,4.09-7.08,6.91-10.07,2.39-2.53,5.12-4.64,8.16-6.39,3.64-2.1,7.54-3.25,11.67-3.52,3.49-.22,6.94.16,10.33,1.19,4.42,1.34,8.29,3.64,11.69,6.67,3.8,3.38,6.82,7.41,9.01,12.01.3.63.71.65,1.2.45.53-.21,1.02-.51,1.54-.76,2.62-1.28,5.23-2.57,7.85-3.84,1.8-.87,3.61-1.69,5.44-2.55-.71-1.38-1.32-2.74-2.08-4-2.04-3.37-4.2-6.65-6.88-9.58-2.33-2.55-4.7-5.06-7.53-7.03-2.62-1.83-5.29-3.65-8.14-5.06-2.78-1.38-5.78-2.35-8.75-3.29-1.8-.57-3.73-.74-5.61-1.11-.85-.17-1.7-.37-2.55-.56-2.02,0-4.04,0-6.06,0h-.57c-.13,0-.25,0-.38,0-.89.13-1.8.22-2.68.4-1.97.41-3.96.78-5.9,1.31-1.85.51-3.69,1.1-5.45,1.85-1.76.75-3.46,1.68-5.13,2.62-3.14,1.76-5.98,3.92-8.66,6.34-2.78,2.5-5.32,5.22-7.43,8.29-2.02,2.94-3.94,5.97-5.62,9.11-1.39,2.6-2.34,5.43-3.54,8.27h-18.53v17.28h15.37v2.28c0,1.27,0,2.53,0,3.8v2.32h-15.36v17.26h18.66c1.51,4.31,3.3,8.38,5.59,12.25,2.43,4.09,5.26,7.86,8.59,11.23,2.52,2.55,5.25,4.85,8.25,6.84,2.73,1.81,5.56,3.42,8.6,4.59,2.37.9,4.81,1.65,7.27,2.24,2.12.51,4.31.87,6.49.97,2.6.13,5.21-.08,7.82-.14.09,0,.19,0,.28,0,3.37-.6,6.72-1.23,9.95-2.42,3.45-1.27,6.8-2.74,9.82-4.86,2.07-1.45,4.18-2.89,6.07-4.57,2.2-1.95,4.36-4.01,6.21-6.29,2.08-2.56,3.83-5.39,5.64-8.16.84-1.29,1.49-2.71,2.22-4.08-2.23-1.07-4.36-2.1-6.48-3.12-2.49-1.2-4.99-2.37-7.47-3.59-1.57-.78-1.55-.81-2.39.76-.1.18-.21.35-.33.52-1.82,2.62-3.45,5.39-5.51,7.81-2.61,3.07-5.79,5.51-9.39,7.44-4,2.14-8.23,3.33-12.73,3.52-3.75.16-7.33-.61-10.85-2.01-4.08-1.62-7.63-3.98-10.64-7.06-2.13-2.17-3.97-4.63-5.77-7.09-.98-1.35-1.59-2.97-2.37-4.46.06-.07.12-.15.18-.22.38-.02.75-.06,1.13-.06,12.19,0,24.38,0,36.57,0,.36,0,.72-.03,1.06-.04v-17.24c-.42,0-.76,0-1.11,0-13.61,0-27.22,0-40.83,0-.59,0-1.25.06-1.73-.2-.2-.11-.03-.94-.03-1.44,0-2.23,0-4.46,0-6.78h43.72v-17.27c-.43,0-.8,0-1.18,0-12.13,0-24.25,0-36.38,0-.41,0-.81-.04-1.22-.06-.06-.07-.12-.15-.18-.22Zm26.33-37.87h-.57.57Zm-48.53,57.75c0,1.27,0,2.53,0,3.8,0-1.27,0-2.53,0-3.8Zm22.38-19.66c-.06-.07-.12-.15-.18-.22.06.07.12.15.18.22Zm-.18,43.33c.06-.07.12-.15.18-.22-.06.07-.12.15-.18.22Z"/></g></svg>