<?xml version="1.0" encoding="UTF-8"?><svg id="Layer_1" xmlns="http://www.w3.org/2000/svg" viewBox="0 0 410.84 383.95"><defs><style>.cls-1{fill:#f2f2f2;}</style></defs><path class="cls-1" d="m116.81,175.45c.46,13.8,5.46,26.05,8.56,38.43-.65,1.47-1.54,2.09-3.12,2.44-5.21-12.72-8.29-25.99-10.06-39.95-7.99,1.41-15.74,1.49-23.99-.23.31,7.49-1.42,14.26-3.23,20.95-1.75,6.46-2.26,13.45-6.61,18.96-2.15-.22-2.91-1.26-2.45-3.08.49-1.94.93-3.9,1.64-5.76,2.87-7.5,4.18-15.39,5.89-23.17.66-3.03,1.29-6.28-2.07-9.39-11.48-3.28-21.97-9.73-30.59-19.17-1.8,4.22-.73,8.89,2.89,12.89,3.23,3.57,6.54,7.07,9.62,10.77,2.32,2.8,2.19,3.04.46,5.77-.95.22-1.7-.27-2.15-.94-3.1-4.55-7.39-8.1-10.69-12.4-6.6-8.62-8.18-13.77-1.88-23.91,3.64-5.86,6.04-11.85,3.65-18.82-1.28-3.72-3.64-5.49-7.23-5.34-.62,3.36-1.06,6.81-1.93,10.14-1.7,6.48-5.26,12.06-9.05,17.47-3.35,4.79-5.45,9.97-4.37,15.85.9,4.89,2.95,9.41,6.16,13.28-.72,1.86-1.93,2.32-3.84,1.8-8.08-10.77-9.78-21.95-1.28-33.57-1.64-1.91-3.64-2.61-5.73-3.2-2.06-.58-4.35.31-6.74-1.23-.22-4.86.4-10.06-.91-15.07-1.66-6.36-2.53-12.56,2.63-17.9,1.47-7.99,4.35-15.52,7.23-23.07.39-1.04.37-2.33.22-3.46-.44-3.39-3.57-4.55-6.26-2.38-.78.63-1.18,1.54-1.71,2.39-5.99,9.51-10.5,19.72-14.15,30.32-.42,1.23-.51,2.6-.65,3.91-.94,8.81-.43,17.65-.27,26.47.11,6.09,2.16,11.71,5.36,16.87,2.54,4.1,4.55,8.45,6.49,12.83,3.06,6.93,7.69,12.4,14.05,16.55,2.32,1.51,4.39,3.48,6.32,5.49,4.1,4.27,4.21,13.39.27,17.88-1.29,1.48-2.83,1.73-4.26-.58.5-1.93.88-4.09,1.98-6.18,1.96-3.7,1.66-5.46-1.33-8.43-1.97-1.96-4.17-3.73-6.43-5.34-6.91-4.93-11.91-11.11-15.05-19.16-1.7-4.35-4.25-8.52-6.71-12.59-3.37-5.58-4.96-11.68-5.13-18-.25-8.97-.9-17.98.68-26.93.96-5.4,2.43-10.59,4.98-15.48,2.37-4.54,4.73-9.11,6.68-13.84,1.4-3.4,4.09-5.88,5.66-9.13.66-1.37,2.12-1.93,3.72-2.19,2.96-.49,5.58.13,7.84,2.02,4.95-5.99,8.09-7.03,15.05-4.95,13.27-18.45,31.23-28.57,54.23-29.12,23.24-.55,41.13,9.86,55.49,27.65,2.69-1.26,5.4-1.81,8.43-1.31,2.36,1.8,5.19,3.24,7.43,5.99,2.36-2.47,5.34-2.77,8.23-2.03,2.49.64,3.86,2.89,5.27,5.02,5.03,7.61,8.81,15.88,12.59,24.12,2.23,4.86,3.48,10.06,3.51,15.45.06,8.33.25,16.67-.05,24.99-.22,6.15-2.43,11.75-5.7,17.07-2.51,4.09-4.3,8.63-6.28,13.02-2.76,6.16-6.91,11.18-12.11,15.4-2.8,2.28-5.54,4.63-8.41,6.82-3.4,2.59-3.48,5.8-2.04,9.37.62,1.54,1.44,3.02,1.96,4.59.51,1.54,1.18,3.2-.34,4.71-1.69.58-2.81-.04-3.44-1.72-.58-1.55-1.18-3.1-1.8-4.64-3.05-7.58-3.23-11.45,5.41-17.99,5.3-4.01,10.78-7.86,14.07-13.69,4.51-8.02,8.43-16.37,12.56-24.6.44-.88.85-1.86.96-2.83,1.65-14.41,3.29-28.94-1.94-42.9-2.95-7.87-7.14-15.29-11-22.79-1.26-2.46-3.3-4.49-6.29-5.48-.82.55-1.73,1.15-2.57,1.71-1.23,4.87.8,9.05,2.65,13.04,1.63,3.49,3.09,6.79,3.23,10.75.17,4.84,3.04,8.65,5.98,12.43-2.75,8.14-2.41,16.65-2.53,25.17-4.37,1.39-8.98.7-12.53,3.58-.58,1.71.67,2.74,1.45,3.98,6.44,10.27,3.78,20.88-1.62,27.9-1.26,1.64-1.9,1.92-4.46,2.4-.98-1.59-1.03-3.49.22-4.61,2.78-2.47,3.34-5.99,4.66-9.07,2.52-5.87-.22-11.19-3.35-15.83-5.26-7.76-9.82-15.66-10.77-25.19-.16-1.56-.99-2.76-1.95-4.03-3.13-.2-4.76,1.18-5.53,4.31-1.53,6.19-1.69,12.06,1.73,17.78,1.77,2.97,3.41,6.13,4.43,9.41,1.72,5.52-.02,10.7-3.7,14.8-4.5,5.01-9.09,9.93-12.87,15.36-1.86.16-2.7-.67-2.98-1.95,2.49-7.19,9.01-11.05,12.96-16.92,2.96-4.41,3.25-4.83,2.06-9.85-9.18,10.46-20.13,17.42-33.4,21.07Zm-33.1-25.11c1.16,1.95,2.07,3.53,3.02,5.08,1.21,1.99,1.73,4.1.24,6.06-1.67,2.19-4.06,2.06-6.36,1.15-1.96-.77-3.95-1.39-5.7-2.79-1.99-1.59-4.02-3.19-6.83-3.65-2.6-.43-4.22-2.44-4.36-5.22-.1-1.99.02-3.99.01-5.98,0-1.9-.58-3.55-1.95-4.8-1.63-.27-3.1-.47-4.78.52-.19,3.85-4.25,6.37-4.28,10.41,25.58,30.22,73.32,28.98,95.76-1.68-2.25-3.61-3.74-7.61-5.46-11.77-3.12,1.3-5.35,2.78-6.74,5.71-1.49,3.13-2.85,6.34-4.49,9.38-3.27,6.06-3.3,6.99-9.46,6.13-4.14-3.28-4.16-7.91-4.15-12.34,0-3.91-1.45-7.08-4.59-8.83-3.44-1.91-4.14-4.49-3.59-7.84.58-3.52-.92-6.02-3.48-8.3-1.72.21-3.38.31-4.99.62-3.39.66-10.5-3.51-11.41-7.71-1.07-4.98-1.94-10.58.13-15.25,2.55-5.76,3.1-12.07,6.08-17.68,2.84-5.33,5.7-7.26,11.35-5.79,1.31.34,2.56.65,4.1.08,3.57-5.11,8.47-7.95,15.16-6.84,2.31-2.81,5.47-2.95,8.51-2.92,1.18-1.23,2.22-2.3,3.25-3.38-21.28-18.97-55.79-17.01-73.85-2.01,3.73,1.36,6.93,3.33,9.37,6.35,2.55,3.17,3.03,8.72.36,10.95-3.28,2.73-3.38,5.88-2.49,9.44.57,2.29.92,4.55.23,7.03-2.02,2.37-5.46,2.59-7.77,4.51q-.84,5.92-3.95,8.48c-4.63.91-7.94-3.92-12.58-3.11-1.32,6.04-4.72,10.4-9.01,13.92-.25,2.75.22,5.08,1.51,7.66.58-3.02,1.48-5.47,4.27-6.83,2.67-.03,5.31-.4,7.93-1.75,3.48-1.79,7.33-2.25,11.12-.73,2.45.99,4.89.8,7.36.37,6.66-1.17,15.35,3.73,16.19,10.33.98,7.73,2.56,15.95-3.68,23.03Zm59.99-34.2q-8.13-10.11-4.62-15.85c2.41-.5,5.43.09,7.44-1.8,2.79-2.62,5.8-2.82,9-2.03,1.88,1.11,2.59,3.74,5.21,3.42,1.1-8.55-8.63-25.59-17.9-33.64-.33.03-.8-.06-.97.12-3.53,3.86-9.06,3.52-13.14,6.25-.62.41-1.64.47-2.42.34-4.51-.76-7.64,1.34-10.37,4.6-.83.99-1.65,2.12-2.97,2.55-1.52,0-3.04.18-4.5-.03-5.16-.77-5.56-.42-8.27,3.92-3.31,5.3-3.09,11.83-6.31,17.14-.47.77-.3,1.96-.31,2.95-.03,3.15-.01,6.3-.01,8.95,1.38,1.47,2.13,2.54,3.4,3.13,1.18.55,2.07,1.68,3.47,1.84,9.79-3.04,14.95,3.51,13.67,14.67.86.89,1.65,2.03,2.73,2.75,3.93,2.6,5.61,6.19,5.45,10.86-.07,1.98.35,3.97.51,5.96.12,1.47.67,2.54,2.57,2.78,3.13-3.35,4.34-7.94,6.43-11.96,2.21-4.26,5.22-7.43,9.13-9.83,1.21-5.84,3.16-11.37,2.77-17.08Zm-71.9-41c.29-6.05-3.87-9.76-11.94-10.92-13.97,10.49-23.11,33.16-20.78,47.75,4.93-2.42,3.21-9.5,6.98-11.09,5.9-2.29,9.26,1.91,14.43,2.22-3.31-8.21,4.73-7.99,8.18-11.37-1.01-6.12-3.45-12.39,3.12-16.58Zm12.04,54.01c-1.69-2.23-3.15-4.02-4.47-5.92-1.6-2.29-3.49-3.13-6.35-2.41-3.73.93-7.49.92-11.28-.41-2.67-.94-5.46-.74-7.76,1.55.87,2.39,2.41,4.15,3.01,6.44.62,2.38.42,4.9,1.08,7.16,7.14.47,9.74,3.41,9.69,10.54-.01,1.96-.45,3.97.67,6.13,5.59.35,9.17,5.76,14.77,6.72.7-1.72-.33-2.57-1.05-3.34-2.9-3.07-2.76-6.09-.41-9.44,1.21-1.73,2.15-3.69,2.12-5.97-.06-3.66-.02-7.31-.02-11.06Zm-40.99-51.17c-5.49-1.39-9.64,1.09-10.22,6.11-.47,4.04-2.03,7.64-3.2,11.42-.78,2.53-2.67,4.56-2.84,7.32-.39,6.26-2.65,11.89-6.04,16.89,1.66,6.96,2.24,13.86,2.31,20.95,3.89.42,7.19,1.23,9.84,3.63,3.59-2.55,4.58-6.23,5.76-9.79-6.94-19.33-5.31-38.05,4.4-56.53Zm137.4,39.62c-3.5-4.06-5.23-8.25-5.45-13.08-.1-2.16-.86-4.08-1.73-6.11-2.2-5.13-4.96-10.2-4.43-16.01q-6.78-7.86-10.46-5.33c-.13,1.89.87,3.41,1.9,4.89,1.15,1.66,1.86,3.52,2.54,5.39,5.28,14.56,5.68,29.31,1.04,44.02-1.62,5.14.73,7.97,3.63,11.06,3.6-1.74,7.02-2.83,10.62-3.94.14-7.06,1.08-13.94,2.34-20.9Zm-22.94-13.67c-2.01-1.32-2.84-3.15-5.29-3.95-2.83,2.64-6.61,4.08-10.65,4.42-.45,1.67-.49,2.75.87,3.77,3.49,2.62,6.16,5.83,5.8,10.89,3.08-1.78,5.6-2.71,8.41-.76,2.57,1.77,3.61,4.29,3.9,7.92,2.46-7.96,2.95-14.82,1.73-21.85-1.57-.76-3.29-.01-4.78-.43Z"/><path class="cls-1" d="m297.63,109.37c12.65-.32,24.59.27,36.59.53,1.72-1.68,3.44-3.37,4.51-5.66,3.34-7.13,13.14-9.95,19.23-8.74,6.37,1.27,10.62,5.02,14,10.64,7.33,12.2,13.84,24.89,22.5,36.69.2-4.23.42-8.45.58-12.68.07-1.94.23-3.73,3.55-3.59,1.31,8.71-.47,17.28-1.1,26.61-9.06-1.45-15.72-7.4-23.38-9.9-.71-2.23-.49-3.55,1.59-4.41,4.27,2.27,8.75,4.65,13.17,7,1.57-1.68-.27-2.16-.71-2.95-4.25-7.59-8.58-15.15-12.9-22.7-2.27-3.98-4.63-7.92-6.85-11.93-4.12-7.45-11.94-10.6-19.81-7.75-1.5.54-3.24,1.23-4.05,2.68-2.24,3.99-5.66,7.27-7.19,11.67-.9,2.57-2.44,4.66-4.02,6.52-1.29.28-2.25.28-3.06-.76-.86-2.5,1.74-4.05,2.03-6.47h-107.79c-2.28,1.79-1.94,3.92-1.95,5.86-.04,22.49-.03,44.98-.02,67.48,0,1.5-.04,3,.87,4.79,4.53,1.94,9.52.56,15.03,1.12v-41.67c2.39-3.85,5.13-4.53,8.29-4.52,11.33.05,22.66,0,33.99.05,5.57.03,8.42,2.97,8.44,8.67.05,10.66,0,21.33.02,31.99,0,1.63-.27,3.31.32,4.81,2.42,1.35,5.64-.82,7.45,2.1.01,1.35-1,1.99-2.07,3-6.76,0-13.75,0-20.73,0-13.5,0-26.99-.03-40.49-.03-4.32,0-8.72.58-12.62-2.18-2.27-2.26-3-5.26-3-8.48-.01-22.49-.17-44.99.06-67.48.08-7.97,2.16-9.86,11.44-10.6,2.43-23.52,4.05-47.18,6.68-70.89,8.32-1.32,15.96-.32,23.63-.75.96,1.06,1.85,2.02,2.86,3.13,2.14,22.71,4.28,45.52,6.45,68.52h9.06c1.18-1.12.74-2.53.75-3.81.04-8.83.06-17.66.01-26.49-.01-2.02-.13-4,1.65-6.19,5.29-.29,11.13-2.75,16.15,1.75,1.16,11.78.6,23.08.87,35.01Zm-14.9,41.97c-6.68,0-13.35-.14-20.01.04-6.54.18-13.18-.84-19.8.77v40.9h41.58c.22-.62.52-1.07.52-1.52.04-11.83.02-23.67.08-35.5.01-1.82-.68-3.16-2.38-4.7Zm-17.96-42.04c-2.07-22.84-4.08-45.1-6.09-67.36h-18.78c-2.01,22.62-3.98,44.86-5.97,67.36h30.85Zm19.25-32.98c-1.07,7.78-.71,29.69.49,33.02,2.59.15,5.21.33,8.03-.19v-32.83h-8.52Z"/><path class="cls-1" d="m281.03,383.95h-103.72c-4.98-4.68-.3-8.74,1.01-12.67,2.11-6.34,8.02-5.21,12.97-5.17,8.24-9.86,16.34-19.56,24.49-29.33-2.28-2.46-3.58-5.46-5.33-8.6-4.92.92-9.88,1.85-14.84,2.77-1.94,11.15-9.33,17.37-18.3,22.2-12.52,6.74-25.51,7.55-38.98,3.12-4.44-1.46-7.46-4.64-10.54-7.77-1.38-1.4-1.23-3.57-.25-6.47,27.28-6.1,54.56-12.2,81.71-18.28,1.73-14.31,7.27-20.91,17.93-22.42,7.28-1.03,18.68,4.54,21.47,13.59,25.88-5.66,51.77-11.32,77.31-16.9,2.73,1.47,3.18,3.39,2.66,5.72-1.42,6.41-4.71,11.46-10.14,15.3-10.07,7.13-21.13,10.75-33.49,10.03-9.51-.56-18.35-2.75-24.5-10.92-.29-.38-.76-.62-1.3-1.04-2.96.75-5.98,1.51-9.29,2.34.15,6.65-2.29,12.29-7.01,17.09,7.26,10.54,17,18.63,23.3,28.91,2.1.84,3.8.76,5.43.58,4.94-.55,7.84,2.08,9.7,6.16,1.09,2.38,1.77,4.94,2.63,7.41-.18,2.13-2.16,2.83-2.91,4.34Zm-6.92-13.78c-1.71,0-3.38-.16-5.02.04-3,.36-5.09-.94-6.88-3.15-4.17-5.13-8.37-10.22-12.59-15.31-3.55-4.27-7.13-8.51-10.79-12.88-6.6,3.95-12.97,2.77-19.32.4-8.62,10.22-17.22,20.41-25.84,30.62-3.25.79-6.63-.25-10.05.66-.63,1.25-1.45,2.51-1.91,3.89-.56,1.7-1.69,3.22-1.75,5.34h99.51c-1.25-3.79-2.31-7.19-5.35-9.62Zm-60.28-48.67c-.17,8.88,6.47,15.9,15.88,15.86,9.5-.04,15.71-9.13,15.63-16.19-.1-8.74-8.32-15.43-15.59-15.47-9.06-.05-15.94,6.79-15.92,15.8Zm-22.89,10.72c-20.09,4.45-39.59,8.77-59.16,13.1,2.28,5.64,12.8,9.91,23.14,9.63,15.23-.41,32.68-9.93,36.02-22.73Zm74.24-16.55c1.69,5.95,13.25,10.02,26.29,9.38,14.66-.72,30.36-11.21,32.44-22.13-19.82,3.74-39.16,8.74-58.73,12.76Z"/><path class="cls-1" d="m290.85,292.14c-1.05-.9-2.43-1.36-3.74-1.97-7.96-3.69-14.58-9.06-19.42-16.38-6.1-9.23-6.54-19.31-3.3-29.57,1.96-6.21,5.36-11.85,10.05-16.35,5.68-5.45,7.41-11.89,6.59-19.41-.21-1.9-1.19-3.93.73-6.13,7.46,2.04,14.46,5.25,20.91,10.02,7.41,5.48,13.6,12.13,18.09,19.96,6.16,10.74,7.58,22.32,2.02,33.92-5.48,11.42-14.95,18.77-26.06,24.74-2.85,2.94-2.15,8.62-6.83,10.96-3.95-4.05,1.29-6.48.96-9.79Zm19.17-51.2c-.49,4.56-1.89,8.98-4.71,12.63-2.66,3.44-4.21,6.9-3.79,11.3.29,2.99-.38,5.96-.9,8.91-.65,3.61-1.24,7.24-1.99,11.59,3.44-2.58,6.25-4.57,8.9-6.74,2.7-2.2,4.89-4.91,7.1-7.62,8.97-10.99,8.61-24.74,3.29-34.43-4.72-8.6-10.89-15.76-18.7-21.49-3.9-2.86-8.11-5.4-12.86-6.34-.72.81-.74,1.46-.71,2.13.31,6.96-1.93,12.82-6.73,18.02-4.23,4.59-7.48,9.97-9.96,15.78-5.53,12.97-.41,29.08,12.88,37.54,3.52,2.24,6.74,5.11,11.43,5.02.59-2.21,1.14-4.26,1.66-6.22-14.36-14.66-15.39-16.08-15.57-21.62,2.67-1.33,3.73,1.1,4.62,2.49,3.04,4.73,6.7,8.89,10.78,12.71,1.24-.35,1.82-1.15,1.92-2.5.2-2.98.77-5.96.77-8.93,0-10.86-1.94-21.47-4.31-32.02-.49-2.18-1.57-4.32-1-6.68,3.38.17,3.79.32,4.39,2.71.92,3.7,1.42,7.52,2.49,11.17,1.22,4.17.61,8.71,2.48,13.04,2.65-3.56,3.59-7.41,4.88-10.78,1.2-.78,2.12-.86,3.66.34Z"/><path class="cls-1" d="m293.7,13.44c-13.41,0-26.89-.05-40.38.03-4.64.03-5.35.89-5.4,5.72-.05,4.64-.01,9.29-.01,13.45-1.29,1.57-2.34,1.5-3.98.68,0-5.56,0-11.35,0-17.15,0-2.37,2.42-3.45,2.46-5.47,3.18-.99,5.91-1.49,8.78-1.47,11.66.05,23.32,0,34.98,0,2.85,0,5.51.17,7.82,2.4,2.08,2,3.2,4.09,3.15,6.97-.03,1.97-.43,4.03,1.04,6.13,1.46,1.33,3.59,1.35,5.79,1.34,10.66-.04,21.32-.03,31.98-.03,1.66,0,3.31,0,4.88,0,2.38,2.11,5.22,3.34,5.68,6.86.36,2.76-.49,5.7,1.07,8.22,1.64,1.35,3.52,1.15,5.33,1.16,4.66.03,9.33-.09,13.99.06,4.97.16,7.99,3.2,8.2,8.11.14,3.4.28,6.82-.88,10.49-2.75,3.11-6.72,4.11-11.27,3.58-1.89-.22-3.64.32-4.98,2.13-.09.47-.26,1.11-.35,1.76-.74,5.53-3.35,8.02-8.74,8.04-11.66.05-23.32.05-34.98,0-5.87-.03-8.46-2.58-8.73-8.46-.11-2.32-.02-4.64-.02-6.54-1.61-2.64-3.57-3.36-6.15-3.3-5.99.13-11.99-.04-17.99.05-2.55.04-4.93-.45-7.11-1.3-2.24-2.53-2.94-5.32-2.86-8.45.1-3.83-.05-7.66.03-11.49.05-2.09-.34-3.92-2.21-5.55-5.32-.87-11.01.14-16.53-.53-.73-2.21-.17-3.86,1.92-3.84,5.94.05,11.98-.92,17.96.91,5.34,7.28,1.54,15.62,3.26,23.81,1.33,1.94,3.71,2.45,6.55,2.38,5.83-.15,11.66-.09,17.49-.03,6.62.06,9.95,3.47,10.04,10.16.03,2.15-.21,4.34.61,6.45.96,1.3,2.34,1.76,3.9,1.76,12.32,0,24.63,0,36.84,0,.96-1.21,1.75-2.22,2.61-3.3.1-1.41.21-2.89.31-4.23,2.23-3.68,5.51-4.68,9.42-4.62,2.42.04,5.05.7,7.32-1.41.99-3.09.46-6.41.44-9.6-1.33-2.45-3.34-3.1-5.9-3.02-3.99.13-8-.06-11.99.05-2.89.08-5.6-.36-8.3-1.75-1.69-2.48-2.49-5.32-2.24-8.38.2-2.54-.63-4.47-2.96-6.11-12.06,0-24.39-.2-36.7.08-6.58.15-10.16-2.52-9.82-9.81.13-2.72-.74-4.86-3.35-6.95Z"/><path class="cls-1" d="m165.29,309.35c-.16,5.32-1.78,9.16-6.35,11.39-1.77.87-3.54.81-5.34.82-9.33.03-18.69-.48-27.98.14-9.51.63-13.22-6.59-11.06-14.38-6.59-2.06-11.3-6.69-14.09-12.75-2.35-5.1-3.22-10.71-2.34-16.55,1.06-7.09,4.11-12.88,9.57-17.47,5.44-4.58,11.88-5.98,18.59-5.6,6.71-16.42,16.57-23.66,30.66-23.66,10.44,0,25.28,9.67,28.6,23.35,3.09.62,6.39.35,9.6,1.29,9.5,2.79,17.8,12.13,18.88,21.96,1.58,14.46-4.17,22.76-16.13,29.55-3.12,1.77-6.68,1.9-10.2,1.91-7.31,0-14.62,0-22.39,0Zm17.09-50.46c-4.77-14.32-13.03-22.44-24.31-22.86-15.75-.6-25.05,7.58-28.2,23.06-13.1-1.2-23.19,3.64-26.77,15.89-4.34,14.83,2.77,25.12,16.95,30.67-.33.74-.52,1.16-.71,1.59-2.89,6.61-.61,10.21,6.65,10.28,9.16.08,18.32.06,27.48-.01,4.81-.04,7.18-2.28,7.48-6.78.12-1.77-.45-3.65.96-5.55,7.52,0,15.18-.25,22.81.07,8.63.36,15.25-2.68,20.58-9.57,10.25-13.25,3.34-29.77-10.78-35.5-3.98-1.61-8.16-.87-12.13-1.28Z"/><path class="cls-1" d="m337.67,195.27c-.83,1.88-2.15,2.25-3.78,2.23-5.66-.07-11.34.24-16.98-.15-15.99-1.11-21.64-16.8-15.6-28.25,2.68-5.09,5.47-10.12,8.62-14.96,3.08-4.73,5.58-9.84,8.56-15.18-5.59,1.6-10.05,5-15.37,6.66-.96-2.26-1.21-3.54.93-4.53,6.81-3.16,13.25-7.07,20.36-9.91.55.42,1.46.76,1.52,1.21,1.09,8.2,1.88,16.43,1.88,24.36-1.22,1.39-2.22,1.6-3.76.43-.44-4.74-.91-9.83-1.42-15.36-1.75,1.45-2.76,3.11-3.73,4.86-3.88,7.03-7.82,14.02-12.2,20.77-1.23,1.9-2.01,4.14-2.76,6.3-3.03,8.7,1.6,17.52,11.53,18.95,5.65.82,11.3.28,16.94.45,1.92.06,4.09-.54,5.26,2.14Z"/><path class="cls-1" d="m369.97,182.75c-3.44,4.35-8.82,6.02-12.76,9.47.17,1.03.9,1.02,1.53,1.01,10.49-.02,20.97-.07,31.46-.09,4.85-.01,8.97-1.32,12.38-5.18,4.62-5.23,5.61-12.02,1.54-17.74-1.19-1.67-1.73-3.53-2.72-5.23-.78-1.35-.25-2.57,1.18-3.29,9.47,6.92,13.1,24.34-1.83,33.12-3.26,1.92-6.8,2.52-10.5,2.51-9.99-.01-19.98-.03-29.96-.02-.96,0-1.97-.35-3.17.47,3.47,4.25,9,5.75,12.63,9.52-.15,2.07-1.38,2.64-3.34,2.69-2.71-2.84-6.52-4.52-9.73-7.1-3.15-2.54-7.38-3.68-9.63-7.29.02-1.21.43-2.14,1.28-2.72,5.53-3.77,11.04-7.57,16.66-11.2,1.67-1.08,3.67-1.7,4.98,1.08Z"/><path class="cls-1" d="m120.28,25.1c-3.13,3.39-17.64,12.17-20.72,12.57-1.53-1.81-.99-3.42.8-4.54,5.24-3.29,10.52-6.5,15.87-9.61,1.52-.89,3.21-1.04,4.05,1.59Z"/><path class="cls-1" d="m294.21,360.91c-.15-.38-.34-.68-.37-.99-.05-.66-.02-1.32-.02-2.29,6.63-3.87,13.34-7.78,19.91-11.61,1.91,1.54,2.19,2.89.71,4.08-4.59,3.69-9.72,6.6-14.99,9.11-1.46.69-2.84,2.47-5.25,1.7Z"/><path class="cls-1" d="m53.86,303.04c-5.08-6.48-9.91-13.11-12.82-21.08,3.87-1.52,4.61.95,5.44,2.38,2.8,4.81,5.63,9.57,9.09,13.94,1.83,2.32,1.59,3-1.72,4.76Z"/><path class="cls-1" d="m25.02,245.09c.86-1.5,1.63-2.03,3.31-1.88,3.73,6.63,4.43,14.73,8.35,20.94-.71,1.99-1.56,2.56-3.59,2.09-3.67-6.4-5.33-14-8.07-21.15Z"/><path class="cls-1" d="m358.74,308.49c-2.48-2.25-1.97-3.73-.82-5.13,4.23-5.18,7.57-10.98,11.34-16.29,1.81-.42,2.35,1.09,4,1.46-4.74,7.1-8.63,14.12-14.52,19.96Z"/><path class="cls-1" d="m82.96,334.01c-5.05-.93-7.39-5.68-10.73-8.67-2.67-2.39-6.92-4.83-6.46-9.5,1.16-.91,2.1-1.02,2.7-.42,5.21,5.15,10.39,10.34,15.49,15.61.53.55.16,1.6-1,2.99Z"/><path class="cls-1" d="m380.99,272.99c-2.61-1.47-2.65-2.76-2.25-3.79,2.65-6.81,5.43-13.57,8.06-20.09,2.11-.13,2.58.97,3.27,2.07-2.09,7.58-5.35,14.71-9.09,21.81Z"/><path class="cls-1" d="m17.96,202.87c1.46-.66,2.25-.75,3.76.03.92,7.41,1.89,15.27,2.82,22.7-1.79,1.43-2.81.92-4.04.16-1.08-7.47-2.09-15.09-2.53-22.88Z"/><path class="cls-1" d="m347.89,321.6c-5.53,5.86-11.15,11.47-17.44,16.45-2.25-.87-2.56-2.2-1.17-3.83,1.29-1.5,2.75-2.86,4.16-4.26,2.91-2.87,5.8-5.75,8.77-8.55,2.08-1.96,2.33-1.9,5.68.19Z"/><path class="cls-1" d="m242.18,4.57c-5.11,3.47-9.09.36-13.01.53-3.94.16-7.91-.61-11.45-.94-1.59-1.17-1.32-2.27-.82-3.49,1.66-1.06,3.58-.62,5.27-.28,6.28,1.26,13.15-.08,20.02,4.18Z"/><path class="cls-1" d="m198.2.23c1.13.94,1.72,1.69,1.28,2.81-.21.26-.38.72-.61.75-7.18.93-14.36,1.84-21.55,2.71-.83.1-1.63-.19-2.19-1.01-.55-1.93.69-2.72,2.29-2.96,6.99-1.07,14.01-1.95,20.78-2.3Z"/><path class="cls-1" d="m132.91,366.66c-.44-1.14-.5-2.24.23-3.25,1.47-.83,20.8,6.63,23.12,9.01-1.64,2.68-3.91,1.64-5.99.92-5.86-2.02-11.7-4.08-17.35-6.68Z"/><path class="cls-1" d="m118.42,356.05c-1.93,2.31-3.1,1.97-4.36,1.25-5.5-3.13-10.93-6.38-16.15-9.98-1.76-1.22-1.73-2.57-.38-4.86,7.22,4.14,14.24,8.35,20.88,13.6Z"/><path class="cls-1" d="m135.2,17.42c-.37-1.93.42-2.88,2.27-3.71,5.62-2.53,11.63-3.9,17.35-6.09,1.9-.73,3.14-.05,4.09,1.57-2.66,2.55-20.41,8.66-23.71,8.22Z"/><path class="cls-1" d="m395.17,209.48c1.37-.91,2.4-.85,3.71.59-1.09,7.4-1.48,15.25-4.07,22.79-2.52.37-3.56-.47-3.19-2.65,1.16-6.98,2.39-13.95,3.55-20.73Z"/><path class="cls-1" d="m147.92,266.61c5.79-4.2,13.82-4.7,18.79-1.64,2.99,1.84,4.45,4.36,4.5,7.74.07,5.31.13,10.63.01,15.94-.12,5.39-3.97,9.32-9.38,9.67-2.15.14-4.32.12-6.47-.02-5.49-.35-8.28-2.33-8.51-7.75-.35-8.04-1.32-16.22,1.06-23.94Zm19.29,23.37c0-4.93-.12-9.76.04-14.57.11-3.22-.67-5.88-3.8-8.06-3.64.28-7.81-1.05-12.2,1.49-.56,8.07-1.39,16.21.56,24.29,4.57,1.58,8.64,1.22,12.47.65,1.02-1.33,1.83-2.38,2.93-3.8Z"/><path class="cls-1" d="m143.42,273.96c-1.79.72-2.55-.1-3.32-1.74-2.77-5.93-11.2-7.11-15.95-2.35-1.29,15.5-.82,20.8,2.18,23.99,2.61.54,5.28.37,7.93.28,2.9-.1,5.18-1.22,5.77-4.38.33-1.74,1.14-2.71,3.19-2.42,1.67,1.67.65,3.64.45,5.85-1.45,1.29-3.06,2.71-5.29,4.69-4.24.49-9.28,1.49-14.27-.95-2.66-1.3-4.14-3.21-4.16-6.11-.05-6.65-.12-13.31.03-19.96.08-3.54,2.32-5.95,5.77-7,3.6-1.1,7.29-.97,10.88-.44,5,.73,7.87,5.46,6.8,10.57Z"/><path class="cls-1" d="m176.66,276.35h15.26c1.15,4.66,1.07,9.06-.09,13.94h-11.36c-1.12,2.01-.6,3.67-.64,5.38,3.83,2.57,9.55-1.67,13.74,3.88-6.36,1.57-11.8.78-17.41.77-1.01-4.81-.53-9.18-.42-13.95h12.2c.99-2.1.67-3.85.42-5.88-3.96-.76-7.95.02-11.72-.46-1.21-1.08-1.11-2.1,0-3.68Z"/></svg>