<?xml version="1.0" encoding="UTF-8"?><svg id="Layer_1" xmlns="http://www.w3.org/2000/svg" viewBox="0 0 384 384"><defs><style>.cls-1{fill:#14b1b9;}</style></defs><path class="cls-1" d="m176.25,0h28.5c.75,0,1.5,0,2.25,0,.36.25.69.65,1.08.71,6.6,1.04,13.22,1.99,19.81,3.04,16.05,2.55,31.26,7.84,45.88,14.73,26.65,12.55,49.18,30.4,67.71,53.34,13.56,16.79,23.96,35.35,31.2,55.62,4.47,12.53,7.77,25.4,9.13,38.71.37,3.65,1.44,7.23,2.19,10.85v30.75c-.23.24-.63.46-.68.73-1.04,6.35-2.06,12.7-3.06,19.06-2.55,16.18-7.93,31.48-14.73,46.29-7.89,17.2-18.48,32.72-31.08,46.73-9.82,10.92-20.87,20.57-33.01,28.97-13.68,9.46-28.22,17.28-43.81,22.96-13.88,5.06-28.15,8.79-42.97,10.04-2.83.24-5.61.96-8.41,1.46h-30c-4.74-.75-9.47-1.61-14.22-2.24-16.89-2.23-32.9-7.45-48.44-14.24-19.3-8.43-36.52-20.12-52.05-34.22-10.25-9.31-19.07-19.94-27.09-31.26-9.6-13.56-17.26-28.13-22.94-43.66-4.9-13.4-8.71-27.18-10.04-41.51C1.21,214.07.5,211.29,0,208.5c0-11,0-22,0-33,.26-.48.68-.95.75-1.45.79-6.3,1.02-12.73,2.38-18.9,2.93-13.33,6.81-26.39,12.23-39,8.76-20.4,20.65-38.77,35.77-54.92,6.99-7.46,14.85-14.17,22.78-20.66,15.58-12.76,33.11-22.21,52.09-28.94,12.47-4.42,25.13-7.98,38.34-9.43,4-.44,7.94-1.45,11.91-2.2Zm13.65,357.33c47.63-.57,87.41-17.07,120.05-50.41,32.85-33.55,48.37-74.24,46.83-120.77-1.41-42.72-17.48-79.79-47.97-110.3-34.05-34.06-75.43-50.15-123.15-48.69-46.73,1.44-86.36,20.16-117.31,55.17-30.9,34.95-45,76.36-41.22,123.04,3.25,40.18,19.41,74.89,48.06,103.37,31.95,31.77,70.62,47.86,114.71,48.58Z"/><path class="cls-1" d="m172.52,219.55c0-15.62,0-31.23,0-46.85,0-4.85,2.46-9.07,6.95-10.4,9.23-2.75,18.41-3.29,27.2,1.89,3.17,1.87,4.92,4.53,4.92,8.04.07,31.73.14,63.47-.02,95.2-.03,6.76-5.54,9.57-10.83,11.45-8.14,2.9-16.17,2.4-23.59-2.77-3.08-2.15-4.66-4.81-4.65-8.58.04-15.99.02-31.98.02-47.97Z"/><path class="cls-1" d="m191.52,100.94c7.34-.55,13.1,2.58,17.38,8,5.64,7.14,4.28,16.91-4.01,23.34-7.92,6.14-21.25,6.16-28.5-1.42-11.03-11.55-3.77-24.92,7.55-28.78,2.38-.81,5.04-.78,7.57-1.14Z"/></svg>