<?xml version="1.0" encoding="UTF-8"?><svg id="Layer_1" xmlns="http://www.w3.org/2000/svg" viewBox="0 0 408.87 292.26"><defs><style>.cls-1{fill:#ededed;}</style></defs><path class="cls-1" d="M408.87,98.65c-2.16,4.2-3.79,8.81-6.6,12.52-4.78,6.31-11.74,8.89-19.57,9.07-2.63,.06-5.25,0-8.29,0,0,1.96,0,3.52,0,5.08,0,23.58,0,47.17,0,70.75,0,10.62-3.74,19.34-13.22,24.74-16.95,9.66-38.02-1.91-38.47-21.46-.49-21.04-.15-42.1-.17-63.15,0-5.16,0-10.33,0-15.96-2.98,0-5.6,.05-8.22,0-14.84-.33-25.95-11.17-26.24-25.57-.28-14.07,10.42-25.89,25.09-26.19,23.53-.49,47.07-.41,70.6,0,12,.21,20.59,7.66,24.16,19.22,.3,.99,.61,1.97,.92,2.96v8Zm-70.35,56.98c0,14.13,.01,28.26,0,42.39,0,4.33,2.09,7.39,5.78,9.29,3.35,1.73,6.67,1.29,9.77-.94,3.49-2.52,4.4-6.06,4.39-10.14-.04-27.33-.04-54.65-.01-81.98,0-7.06,2.91-9.93,9.93-9.99,4.66-.04,9.31,.05,13.97-.03,5.92-.1,10.44-4.36,10.53-9.78,.09-5.39-4.41-10.1-10.21-10.12-22.88-.1-45.77-.1-68.65,.01-5.63,.03-9.96,4.58-9.99,9.88-.03,5.51,4.38,9.88,10.25,10,4.52,.1,9.05,.01,13.57,.03,7.77,.03,10.64,2.84,10.65,10.58,.03,13.6,0,27.19,.02,40.79Z"/><path class="cls-1" d="M180.76,214.48c-37.11,.65-68.33-30.22-68.79-68.02-.45-37.1,29.78-68,67.18-68.68,37.64-.69,68.68,29.46,69.27,67.27,.59,37.83-29.56,68.77-67.66,69.43Zm-.09-120.72c-28.83-.23-52.37,22.92-52.74,51.87-.36,28.59,23.02,52.39,51.9,52.85,28.52,.45,52.44-23.18,52.63-52.01,.19-28.97-22.9-52.48-51.79-52.71Z"/><path class="cls-1" d="M.07,145.8c0-15.86-.09-31.73,.03-47.59,.09-13.38,7.73-24.49,19.3-28.5,19.68-6.81,39.26,6.42,39.57,27.6,.47,32.52,.34,65.06,.03,97.58-.14,14.7-9.9,25.98-23.62,28.79-13.18,2.7-26.56-3.77-32.25-16.4-1.96-4.34-2.82-9.49-2.93-14.29-.36-15.72-.13-31.46-.13-47.19Zm15.97,.46c0,16-.07,31.99,.03,47.99,.05,8.07,5.76,13.94,13.31,14.03,7.59,.09,13.68-5.66,13.7-13.62,.12-32.39,.08-64.78,.02-97.17,0-4.99-2.18-9.02-6.51-11.67-9.19-5.61-20.41,.9-20.51,12.06-.14,16.13-.04,32.26-.03,48.39Z"/><path class="cls-1" d="M182.13,292.25c-28.68,.26-56.02-7.47-81.02-23.4-4.6-2.93-5.92-7.68-3.43-11.63,2.4-3.8,7.09-4.87,11.62-2.05,11.81,7.35,24.23,13.28,37.76,16.62,40.03,9.89,76.91,2.86,110.46-21.15,4.95-3.55,9.39-7.82,14.04-11.79,4.46-3.81,9.14-3.97,12.35-.37,3.21,3.6,2.57,8.17-1.74,12.28-27.76,26.48-60.84,40.19-100.05,41.49Z"/><path class="cls-1" d="M172.05,0c34.38-.04,59.22,6.6,82.23,20.05,1.58,.92,3.25,1.98,4.36,3.38,2.31,2.91,2.36,6.22,.12,9.22-2.3,3.08-5.51,4.38-9.14,2.72-4.94-2.26-9.59-5.17-14.57-7.35-44.93-19.76-87.92-15.84-128.8,11.13-5.07,3.35-9.53,7.65-14.24,11.54-1.33,1.1-2.53,2.37-3.89,3.43-3.79,2.96-8.2,2.8-11.15-.31-3-3.16-3-8.14,.59-11.43,5.68-5.21,11.38-10.48,17.61-14.98C120.39,9.18,148.71,.24,172.05,0Z"/><path class="cls-1" d="M182.33,38.62c26.94,.49,51.99,10.44,72.94,30.5,4.08,3.9,4.49,8.44,1.21,12-3.14,3.42-7.95,3.47-12.03-.37-10.43-9.81-22.15-17.44-35.89-21.58-32.51-9.79-61.91-3.75-88.11,17.87-1.85,1.52-3.5,3.28-5.41,4.71-3.76,2.82-8.26,2.36-11.05-.96-2.76-3.29-2.62-7.92,.96-11.09,5.26-4.67,10.54-9.44,16.38-13.31,17.84-11.85,37.64-17.59,61.01-17.77Z"/><path class="cls-1" d="M182.57,253.48c-31.08-.4-56.1-10.45-77.08-30.46-3.98-3.8-4.45-8.57-1.28-12.01,3.25-3.52,7.83-3.62,12.02,.32,10.44,9.79,22.14,17.53,35.89,21.61,32.94,9.77,62.72,3.74,89.02-18.65,1.52-1.29,2.93-2.73,4.53-3.91,3.85-2.84,8.25-2.43,11.05,.9,2.8,3.33,2.73,7.91-.86,11.11-5.36,4.76-10.78,9.57-16.72,13.53-17.48,11.62-38.11,17.56-56.56,17.58Z"/><path class="cls-1" d="M285.92,48.23c.08,4.3-3.44,7.96-7.73,8.03-4.36,.08-8.23-3.75-8.2-8.09,.03-4.19,3.79-7.9,7.98-7.87,4.2,.03,7.87,3.69,7.95,7.93Z"/><path class="cls-1" d="M82.69,235.78c4.2,0,8.23,4.03,8.22,8.21-.01,4.18-3.76,7.92-7.94,7.93-4.31,0-8.13-3.84-8.12-8.2,0-4.27,3.62-7.94,7.84-7.94Z"/><path class="cls-1" d="M150.87,146.04c.01-16.21,13.29-29.54,29.4-29.54,16.04,0,29.47,13.48,29.46,29.56,0,16.15-13.33,29.47-29.48,29.47-16.24,0-29.4-13.21-29.39-29.49Zm29.58,13.48c7.37-.08,13.38-6.2,13.32-13.56-.07-7.36-6.2-13.47-13.51-13.47-7.51,0-13.54,6.24-13.42,13.86,.12,7.46,6.1,13.25,13.61,13.17Z"/></svg>