<?xml version="1.0" encoding="UTF-8"?><svg id="Layer_2" xmlns="http://www.w3.org/2000/svg" viewBox="0 0 410.81 383.95"><defs><style>.cls-1{fill:none;stroke:#d9d9d9;stroke-dasharray:0 0 20.68 20.68;stroke-miterlimit:10;stroke-width:5px;}.cls-2{fill:#d9d9d9;}</style></defs><circle class="cls-1" cx="206.57" cy="193.15" r="184.32"/><path class="cls-2" d="m316.97,142.43c-2.03-.06-2.89,1.15-2.98,4.21-.34,12.06-.7,24.12-1.02,36.18-.34,12.95-.62,25.9-.95,38.85-.08,3.1-.28,6.19-.43,9.28,1.03,2.54.53,5.2.32,7.75-.16,1.97-.34,3.93-.37,5.9-.08,5.63-.11,11.27-.2,16.9-.01.71.4,1.58-.53,2.07,0,7.3-.04,14.6-.41,21.9-.25,5.08-.19,10.18-.33,15.27-.08,3.09-.31,6.18-.4,9.28-.06,2.31-1.25,3.69-3.34,4.41-3.45,1.19-6.94,1.32-10.4.12-2.18-.76-3.44-2.36-3.58-4.71-.07-1.21-.03-2.43-.03-3.65,0-13.29,0-26.57,0-39.86,0-.88.07-1.77.11-2.65-.48-1.85-.25-3.73-.24-5.6-2.23.14-4.48.23-6.72.19-.05,1.81.25,3.63-.23,5.42.17,3.9-.49,7.73-1.23,11.51-2.42,12.48-7.46,23.83-15.37,33.78-10.79,13.57-24.5,22.82-41.33,27.34-4.71,1.27-9.45,2.29-14.34,2.48-.42.6-.86.7-1.35.08-.65.05-1.31.14-2-.22v-45.26c2,.53,3.76,1.14,5.57,1.47,6.67,1.21,12.97-.52,19.15-2.75,12.79-4.62,19.76-14.36,23.35-26.98.15-.53.37-1.04.56-1.56.4-2.63-1-3.89-3.3-4.74-.91-.33-2.2-.05-2.72-1.26-.63-.09-1.25-.18-1.88-.27-.55.22-1.09.4-1.46-.29-.85-.09-1.75.16-2.54-.38-.72.07-1.44.14-2.16.21l-.3.12-.3-.1c-.49-.03-.97-.05-1.46-.08-.89-.04-1.95.84-2.61-.45-.45.23-.85.08-1.23-.19-2.23.31-4.41,1.05-6.71.76-.25.42-.66.53-1.1.64-7.64,1.94-13.8,6.31-19.34,11.73-.31.3-.64.59-.98.86-.07.06-.21.03-.54.07-.4-3.05-.14-6.09-.18-8.99.25-.32.35-.59.52-.64,5.32-1.56,8.95-5.16,11.59-9.82,3.82-6.75,5.25-14.07,4.42-21.75-.47-4.37-2.44-8.27-4.88-11.86-3.32-4.89-7.5-9.01-12.24-12.55-2.03-1.52-3.05-1.66-4.79-.4-6.18,4.46-11.32,9.89-15.01,16.62-2.89,5.27-3.43,10.97-2.61,16.77.85,6.09,2.76,11.83,6.77,16.67,2.37,2.87,5.14,5.16,8.83,6.16.51.14.98.44,1.5.68v8.13c-2.34-1.94-4.43-3.67-6.51-5.39-2.06-1.7-4.45-2.89-6.69-4.31-.58.09-1.1.02-1.36-.61-10.42-4.26-20.84-2.99-31.22.14-2.2.66-3,1.97-2.48,4.02,2.01,7.92,5.12,15.3,10.82,21.38,4.23,4.51,9.65,6.98,15.33,8.94,2.92,1.01,5.96,1.76,9.05,2.02,4.33.36,8.64.29,12.91-2v45.27c-27.78.2-63.01-19.83-72.73-58.6-8.97-35.78,6.92-69.53,34.48-85.98,10.25,9.07,24.46,2.55,25.44-10.71,9.08-1.58,18.19-2.03,27.58-.68-.4,5.69,3.3,8.59,7.63,10.93,2.52,1.36,4.97,2.87,7.73,3.82,5.13,1.77,8.02.89,11.13-3.62.25-.36.47-.74.68-1.07,1.31-.27,2.2.52,3.1,1.09,13.99,8.86,24.19,20.95,30.82,36.1.13.29.09.64.13.97.85,1.45,1.32,3.04,1.8,4.62.91-.1,1.83-.11,2.74,0,.46.07.92.12,1.38.15.26.02.44.03.56.04.2-.02.38-.04.47-.04,1.54-.04,3.08-.14,4.62-.25.6-.04,1.19-.03,1.77.02.04-1.49.1-2.98-.04-4.47-.66-1.25-.32-2.6-.36-3.91-.07-2.21,0-4.42-.11-6.62-.06-1.22-.78-2.03-2.07-2.22-1.18-.17-2.16.13-2.92,1.12-.52.68-.5,1.44-.51,2.2-.02,2.65-.03,5.3-.04,7.95.16.5.23.99-.2,1.44-1.03.16-1.09-.55-1.12-1.29-5.36-13.03-13.26-24.25-24.1-33.61,2.4-1.7,2.08-4.13,2.09-6.4.04-13.86-.03-27.73.05-41.59.05-9.41-1.32-18.52-5.27-27.14,2.31-3.08,5.44-4.86,8.83-6.33,1.75-.75,2.34-2.19,1.74-3.72-.59-1.53-2.15-2.29-3.86-1.55-2.63,1.15-5.36,2.15-7.51,4.19-.62.59-1.17,1.38-2.24,1.23-.82-.23-1.11-1.01-1.55-1.62-3.53-4.93-7.88-8.99-13.06-12.13-2.27-1.38-4.59-2.69-7.11-3.56-1.55-.54-3,.14-3.62,1.48-.63,1.35-.14,2.79,1.31,3.65.57.34,1.21.54,1.81.82,8.73,4.11,15.36,10.37,19.59,19.09,3.39,6.99,5.1,14.37,5.11,22.13.02,15.08,0,30.17-.02,45.25,0,.83.28,1.75-.56,2.7-3.51-2.22-6.92-4.64-10.68-6.57-.18-4.06-2.3-7.12-4.78-9.7,0-3.05-.04-5.82,0-8.59.17-9.2.38-18.4.58-27.6.03-1.44.18-2.9-1.02-4.03-3.55-1-4.71-.18-4.81,3.4,0,.22,0,.44,0,.67-.21,10.2-.41,20.4-.64,30.6-.02.74.22,1.56-.53,2.39-5.13-.76-10.01,0-13.48,4.05-3.87-.31-7.28-.71-10.71-.83-3.54-.13-7.1,0-10.64,0-.4.6-.84.72-1.34.1-3.23.61-6.59.53-9.84,1.79-1.22-1.84-2.36-3.7-4.46-4.74-2.19-1.08-4.54-.1-6.89-.64-.1-7.33-.19-14.52-.31-21.7-.07-4.1-.18-8.2-.33-12.29-.09-2.39-.91-3.32-2.78-3.36-1.88-.04-2.73.93-2.82,3.26-.03.66.01,1.33.02,1.99.14,10.42.28,20.84.4,31.26.01,1.31.23,2.65-.18,4.05-1.8,1.16-3.7,2.29-5.5,3.55-2.6,1.81-4.25,4.17-3.98,7.54.04.54,0,1.08,0,1.54-1.5,1.04-2.84,1.97-4.19,2.91-.79-1.11-.51-2.14-.51-3.11-.03-14.19.02-28.38-.05-42.56-.03-6.27.93-12.34,3-18.24,3.51-10.01,9.66-17.83,19.09-22.9,1.46-.78,3.01-1.4,4.46-2.19,1.47-.81,1.94-2.23,1.33-3.65-.53-1.23-1.85-1.93-3.29-1.66-.53.1-1.05.35-1.55.58-7.48,3.43-13.9,8.19-18.74,14.94-.58.81-1.04,1.71-2.04,2.39-2.64-2.29-5.47-4.36-8.86-5.56-1.44-.51-2.81-.98-3.96.32-1.09,1.23-.95,2.62,0,4.1,3.66,1.61,7.44,3.23,9.95,6.81-.07.26-.1.59-.23.88-3.34,7.48-4.9,15.35-4.95,23.52-.03,5.99-.04,11.97-.01,17.96.05,10.96-.19,21.92.21,33.17-.51.45-1.17,1.03-1.83,1.62-3.92,3.46-7.35,7.35-10.55,11.48-3.89,5.01-6.95,10.52-9.78,16.16.13,1.04-.52,1.73-1.11,2.5-.42-.83-.53-1.63-.18-2.46.52-1.76-.03-3.52-.14-5.26-.09-1.42-1.38-2.22-2.86-2.19-1.57.03-2.34.73-2.59,2.43-.08.54-.05,1.11-.05,1.66-.12,12.29.3,24.59-.38,36.88-.21,3.76.35,7.52.37,11.28.08,12.41.03,24.82.03,37.23,0,.66.02,1.33,0,1.99-.1,2.36-1.25,3.9-3.5,4.71-3.82,1.37-7.57,1.23-11.3-.31-1.62-.67-2.36-1.95-2.48-3.61-.16-2.21-.29-4.42-.35-6.63-.43-15.17-.88-30.33-1.24-45.5-.55-22.7-1.04-45.41-1.55-68.11-.06-2.77-.13-5.54-.21-8.31-.35-12.29-.7-24.57-1.04-36.86-.55-.36-.62-.87-.45-1.45-.94-1.21-2.16-1.58-3.53-.94-1.51.7-1.92,2.11-1.81,3.63.67,9.29.45,18.61.83,27.91.66,15.83.92,31.68,1.31,47.52.28,11.3.52,22.6.78,33.91.3,12.85.58,25.71.9,38.56.14,5.43.35,10.85.55,16.28.13,3.73,1.77,6.61,5.06,8.4,2.05,1.11,4.24,1.82,6.62,1.99,5.2.37,10.15-.18,14.28-3.46,6.69,4.54,13.76,4.04,20.98,2.46,16.88,16.31,36.87,25.01,60.41,24.91,23.64-.11,43.62-9.11,60.25-25.45,7.88,2.45,15.27,2.62,22.2-1.93,4.99,4,10.72,4.27,16.48,3.05,6.83-1.45,9.28-4.91,9.44-12.01.24-10.41.5-20.83.8-31.24.13-4.54.37-9.07.56-13.6-.44-10.81.35-21.59.6-32.39,0-.11.06-.21.09-.32.15-12.28.6-24.56.96-36.84.47-15.83.75-31.66,1.09-47.49.06-2.89-.75-4.08-2.64-4.14Zm-106.95,139.36c.78-2.58,2.09-4.87,3.85-6.91,3.38-3.9,7.39-7.01,11.9-9.48,2.76-1.51,5.72-2.35,8.92-2.13.21-.54.53-.95,1.16-.95,3.14,0,6.27,0,9.41.02.6,0,.98.39,1.25.89,1.64.14,3.28.27,4.75.4.88,1.03.39,1.92.12,2.68-3.78,10.67-10.57,18.25-21.8,21.36-3.74,1.03-7.46,2.04-11.4,1.85-2.03-.09-3.95-.55-5.71-1.54-2.41-1.36-3.26-3.53-2.45-6.2Zm19.9-102.94c3.22-.84,7.35.74,9.34,3.57,2.13,3.04,1.92,6.45-1.02,10.28-5.39-1.14-9.88-3.89-13.94-7.18.24-3.74,2.01-5.73,5.61-6.67Zm-59.83,5.07c2.79-1.81,5.68-3.46,8.77-4.69,3.1-1.23,4.51-.4,5.35,2.82,1.19,4.55-1.73,9.08-6.63,10.27-4.51,1.09-8.25-1.22-9.5-5.94.38-1.29,1.19-1.93,2.01-2.47Zm-39.71,129.54c-1.54-.85-1.85-2.37-1.85-3.99,0-4.42,0-8.84.01-13.26-.27-1.05-.31-2.1.08-3.16.9.37,1.15,1.02,1.06,1.86,3.26,7.03,7.31,13.57,12.4,19.82-4.29,1.21-8.08.72-11.69-1.27Zm73.21-28.44c-.13,1.62-1.35,2.47-2.61,3.21-2.26,1.34-4.82,1.76-7.35,1.65-6.98-.3-13.47-2.39-19.36-6.12-5.04-3.19-8.13-8.04-10.49-13.37-.88-1.99-1.5-4.1-2.23-6.15,17.09-5.73,30.98-.36,40.43,12.85,1.72,2.41,1.84,5.15,1.61,7.94Zm-5.38-33.78c-3.44-3.69-4.84-8.33-5.87-13.14-2.18-10.09,2.56-17.53,9.19-24.25,1.09-1.1,2.29-2.08,3.47-3.1.32-.28.73-.45,1.28-.79,3.14,2.12,5.65,4.9,8.07,7.76.29.34.53.71.79,1.06,7.06,9.35,6.95,22.44-.27,31.68-.07.09-.14.17-.21.26-5.08,5.81-10.94,6.42-16.45.51Zm88.5,57.57c-.02,3.56-1.16,5.07-4.56,5.9-3.44.84-6.9,1.1-10.51-.21,5.94-7.2,10.45-15.1,13.89-23.63-.3-1.18.94-1.82.9-2.93.51,1.01.54,1.99.26,2.99,0,5.96.05,11.92.02,17.88Z"/><path class="cls-2" d="m182.91,72.4c0-1.77.01-3.55,0-5.32-.08-11.22,10.4-21.97,21.94-21.93,4.11.01,8.2,0,12.03,1.79,7.56,3.54,12.22,9.4,13.53,17.65.84,5.26.8,10.61.02,15.88-1.77,11.91-12.32,19.81-23.23,19.59-6.27-.13-11.83-1.57-16.5-5.75-4.91-4.39-7.82-9.83-7.8-16.59,0-1.77,0-3.55,0-5.32,0,0,0,0,0,0Zm42.08.88c0-2.26.05-3.92,0-5.58-.17-5-2.15-9.15-5.83-12.55-5.92-5.48-15.35-5.31-20.57-2.75-5.33,2.62-8.85,6.83-9.77,12.93-.58,3.86-.26,7.73-.29,11.59-.08,8.93,6.92,16.25,15.22,17.3,10.27,1.3,18.39-4.11,20.81-13.29.72-2.74.24-5.5.43-7.65Z"/><path class="cls-2" d="m267.31,87.87c.05-2.87-.15-5.76.51-8.6,2.7-11.59,14.59-18.2,26.6-15.07,8.46,2.21,15.39,9.9,15.25,19.72-.06,4.09.43,8.22-.41,12.27-2.08,10.04-11.59,17.3-23.43,15.99-10.44-1.15-16.36-8.6-17.96-15.37-.69-2.94-.53-5.95-.56-8.93Zm36.77.2c0-1.33.02-2.66,0-3.99-.13-6.37-3.68-11.54-9.65-13.8-8.92-3.38-19.72.92-21.32,11.95-.56,3.83-.44,7.76.02,11.61.44,3.63,2.2,6.68,5,9.12,3.3,2.88,7.2,3.67,11.44,3.53,6.95-.24,12.37-4.98,13.94-10.83.68-2.53.53-5.05.58-7.59Z"/><path class="cls-2" d="m147.88,88.05c-.09,3.19.21,6.39-.75,9.55-2.67,8.74-10.62,15.09-21.25,14.69-8.04-.3-14.14-3.88-18.11-10.96-1.28-2.27-1.96-4.7-2.06-7.27-.13-3.32-.04-6.65-.15-9.97-.32-9.81,6.8-17.67,15.07-19.85,9.04-2.39,19.04.69,24.15,8.82,1.85,2.95,3.02,6.15,3.1,9.67.04,1.77,0,3.55,0,5.32Zm-36.54-.37c-.05,0-.1,0-.15,0,0,1.44-.03,2.88,0,4.33.18,7.38,5.47,13.15,12.08,14.24,10.1,1.67,17.49-3.75,18.86-12.66.57-3.71.36-7.52.02-11.28-.1-1.09-.47-2.16-.82-3.21-2.08-6.16-8.3-9.94-14.98-9.97-5.82-.03-13.68,4.28-14.96,12.58-.3,1.95-.04,3.98-.04,5.97Z"/><path class="cls-2" d="m307.11,113.87c-.6-1.65-.83-3,.58-4.12,1.38-1.09,2.67-.53,4.03.08,11.63,5.24,19.03,14.11,22.75,26.23,1.47,4.81,2.33,9.68,2.34,14.69,0,13.53,0,27.06-.03,40.59-.02,7.58-1.84,14.68-5.91,21.14-.83,1.31-1.71,2.6-2.71,3.77-1.26,1.48-2.78,1.64-4.1.62-1.35-1.04-1.58-2.44-.35-4.08,3.32-4.4,5.72-9.22,6.7-14.65.71-3.94.75-7.95.78-11.93.09-10.87.08-21.74,0-32.61-.04-5.66-.61-11.25-2.42-16.68-3.13-9.37-8.84-16.51-17.68-21.04-1.28-.65-2.55-1.3-3.97-2.02Z"/><path class="cls-2" d="m105.44,109.1c1.7.08,2.6.71,2.98,1.85.42,1.23.29,2.46-.91,3.26-.64.42-1.39.67-2.09,1-11.12,5.29-17.52,14.24-20.16,26.06-.85,3.79-1.3,7.63-1.29,11.52.03,11.98,0,23.96.02,35.94,0,3.77.38,7.52,1.25,11.2.97,4.15,2.69,7.96,5.23,11.39.53.71,1.07,1.42,1.49,2.2.69,1.27.27,2.38-.75,3.26-.91.8-1.92.97-3.07.38-.83-.43-1.32-1.12-1.86-1.83-4.88-6.36-7.4-13.62-7.7-21.54-.3-7.98-.18-15.97-.19-23.95,0-7.43-.25-14.88.21-22.29.7-11.28,4.62-21.37,12.77-29.49,3.64-3.63,7.85-6.47,12.63-8.43.62-.26,1.21-.53,1.44-.51Z"/><path class="cls-2" d="m260.16,235.7c.74-.73,1.58-1.31,2.54-1.73.71-.47,1.46-.81,2.25-1.05-.3-.78-.57-1.45-.77-1.93-.44-.76-.88-1.52-1.31-2.29-5.48-9.78-13.02-17.66-22.57-23.45-13.12-7.96-27.38-11.03-42.68-9-13.23,1.75-24.84,7.03-34.75,15.94-11.07,9.95-17.87,22.28-20.65,36.97-2.59,13.67-.63,26.71,5.08,39.16,4.94,10.78,12.56,19.49,22.41,26.2,5.72,3.9,11.93,6.73,18.56,8.65,2.06.6,3.56-.05,4.04-1.67.52-1.73-.22-2.97-2.29-3.78-.82-.32-1.67-.57-2.51-.84-7.82-2.48-14.76-6.52-20.82-12.03-12.32-11.2-18.91-25.17-19.71-41.78-.64-13.16,2.94-25.21,10.41-36.02,9.18-13.28,21.81-21.4,37.61-24.61.37-.59.79-.82,1.33-.19.87-.16,1.73-.38,2.61-.47,15.93-1.52,30.48,2.01,43.32,11.82,6.22,4.75,11.39,10.42,15.11,17.36,1.04,1.53,2.01,3.1,2.79,4.75Z"/><path class="cls-2" d="m271,260.26c-1.78.4-3.56.79-5.38,1.02-.04.78-.13,1.57-.26,2.36.09,5.39-1.12,10.59-2.87,15.58-7.09,20.15-21.07,33.08-41.61,38.91-1.27.36-2.63.43-3.61,1.41-.97,3.82.17,5.16,3.8,4.49.65-.12,1.28-.35,1.92-.52,6.12-1.67,11.93-4.08,17.31-7.46,13.86-8.71,23.26-20.87,28.13-36.54,1.62-5.21,2.34-10.56,3-15.94-.74-1.03-.46-2.18-.41-3.29Z"/></svg>