<?xml version="1.0" encoding="UTF-8"?><svg id="Layer_1" xmlns="http://www.w3.org/2000/svg" viewBox="0 0 383.63 383.22"><defs><style>.cls-1{fill:#ff4b26;}.cls-2{fill:#ffd500;}.cls-3{fill:#167ee6;}.cls-4{fill:#12b347;}.cls-5{fill:#d93f21;}.cls-6{fill:#0f993e;}</style></defs><path class="cls-3" d="m250.47,292.39c10.16-6.39,19.64-13.66,27.67-22.61,9.58-10.69,17.32-22.58,22.41-36.52-1.72,0-3.08,0-4.44,0-27.68,0-55.37-.19-83.05.11-6.71.07-13.01-6.97-12.89-12.89.32-16.58.09-33.18.13-49.76.01-6.33,4.33-11.32,10.57-12.26,1.71-.26,3.47-.3,5.21-.3,49.88-.02,99.77.06,149.65-.09,8.28-.03,15.85,4.25,15.81,13.16-.01,3.03,1.35,6.06,2.09,9.09v27.7c-.24.39-.62.76-.69,1.18-1.04,6.5-2.01,13.01-3.05,19.51-2.85,17.68-8.66,34.45-16.86,50.27-10.39,20.04-23.77,37.87-40.72,53.03-10.68,9.55-22.01,18.05-34.42,25.16-12.47-21.59-24.95-43.18-37.42-64.77Z"/><path class="cls-4" d="m176.27,383.22c-2.94-.5-5.86-1.16-8.82-1.49-23.13-2.57-44.79-9.88-65.26-20.68-14.45-7.63-27.61-17.19-39.7-28.27-13.71-12.58-25.19-26.91-34.96-42.67-.56-.91-.78-2.03-1.16-3.05,3.29-1.89,6.58-3.77,9.86-5.67,13.99-8.09,27.95-16.23,41.98-24.26,4.13-2.36,8.45-4.39,12.68-6.57,3.32,4.51,6.63,9.03,9.96,13.53,9.01,12.17,20.63,21.31,33.53,28.99,12.81,7.63,26.82,11.87,41.35,14.4,5.32.93,10.83.7,16.26,1,0,24.92,0,49.83,0,74.75h-15.72Z"/><path class="cls-6" d="m287.89,357.16c-6.56,3.44-12.96,7.25-19.73,10.23-12.62,5.57-25.73,9.77-39.31,12.3-6.13,1.14-12.33,1.84-18.5,2.77-1.14.17-2.26.5-3.39.75h-14.97c0-24.92,0-49.83,0-74.75,19.76-.65,38.45-5.24,55.76-14.99.84-.47,1.81-.73,2.71-1.09,12.47,21.59,24.95,43.18,37.42,64.77Z"/><path class="cls-1" d="m26.41,95.88c3.85-6.2,7.25-12.73,11.65-18.51,5.74-7.55,11.8-14.96,18.54-21.61,11.15-10.99,23.41-20.72,36.89-28.79,19.01-11.39,39.34-19.47,61.19-23.24,9.77-1.69,19.75-2.12,29.64-3.1C186.87.38,189.43.21,191.99,0c0,25.12,0,50.25,0,75.37-14.84-.48-29.11,2.29-42.91,7.65-11.85,4.6-22.42,11.24-32.21,19.33-10.24,8.46-18.33,18.61-25.29,29.8-.11.18-.42.25-.63.37-1.17-.37-2.45-.56-3.49-1.15-7.51-4.32-14.96-8.74-22.45-13.1-12.86-7.48-25.73-14.93-38.59-22.39Z"/><path class="cls-2" d="m26.41,95.88c12.87,7.46,25.74,14.91,38.59,22.39,7.49,4.36,14.94,8.78,22.45,13.1,1.04.6,2.32.78,3.49,1.15-3.41,7.75-7.27,15.33-10.12,23.28-5.29,14.79-6.84,30.29-5.45,45.81,1.48,16.47,6.38,32.12,14.68,46.57.41.72.56,1.59.83,2.38-4.23,2.18-8.55,4.21-12.68,6.57-14.03,8.02-27.99,16.16-41.98,24.26-3.28,1.9-6.58,3.78-9.86,5.67-2.08-3.45-4.39-6.79-6.19-10.38-7.72-15.45-13.25-31.72-16.73-48.6C.09,211.76-.65,195.1.51,178.56c1.65-23.63,7.13-46.48,17.82-67.83,2.52-5.04,5.38-9.91,8.08-14.86Z"/><path class="cls-5" d="m191.99,75.37c0-25.12,0-50.25,0-75.37,12.72,1.22,25.59,1.64,38.13,3.86,18.14,3.21,35.37,9.62,51.61,18.48,12.62,6.89,24.44,14.87,35.37,24.28,5.67,4.88,6.13,13.81.36,19.62-11.17,11.23-21.98,22.87-33.72,33.47-9.03,8.14-12.44,6.12-21.5-.8-13.99-10.69-29.43-18.15-46.82-21.1-7.73-1.31-15.61-1.65-23.43-2.44Z"/></svg>