<?xml version="1.0" encoding="UTF-8"?><svg id="Layer_1" xmlns="http://www.w3.org/2000/svg" viewBox="0 0 356.94 331.59"><defs><style>.cls-1{fill:#fcfcfc;}</style></defs><path class="cls-1" d="m0,9.33C1.83,6.89,3.22,3.84,5.59,2.15c5.12-3.66,10.58-2.04,15.81.42,11.03,5.19,22.04,10.41,33.1,15.53,17.26,7.99,34.56,15.9,51.83,23.86,18.17,8.38,36.33,16.8,54.51,25.17,25.9,11.92,51.84,23.76,77.73,35.71,25.9,11.96,51.75,24.02,77.63,36.01,10.77,4.99,21.52,10.06,32.4,14.81,5.41,2.36,8.32,6.59,8.35,11.94.03,5.4-3.09,9.52-8.38,11.94-18.47,8.44-36.84,17.11-55.26,25.66-19.34,8.97-38.7,17.91-58.06,26.84-15.08,6.96-30.17,13.89-45.24,20.84-18.14,8.36-36.28,16.72-54.4,25.11-12.22,5.65-24.39,11.4-36.63,17.02-17.03,7.82-34.11,15.52-51.13,23.35-9.8,4.51-19.43,9.38-29.31,13.68C11.12,333.26,4.26,331.89,0,321.88,0,319.55,0,317.23,0,314.9c.84-1.42,1.57-2.93,2.55-4.24,18.8-25.13,37.62-50.25,56.47-75.34,17.01-22.64,34.09-45.24,51.04-67.93.59-.79.6-2.74.03-3.57-3.3-4.75-6.83-9.35-10.32-13.96-10.89-14.4-21.82-28.77-32.68-43.2-12.42-16.51-24.82-33.04-37.14-49.62C19.91,43.51,9.98,29.89,0,16.3c0-2.33,0-4.65,0-6.98Z"/></svg>